<svg id="Layer_1" data-name="Layer 1" xmlns="http://www.w3.org/2000/svg" viewBox="0 0 2196.78 1289"><title>plano-horizontal</title><path d="M2098.5,1278.71v-6.5m-1095.5-145V993.71m-912-703H0V62.21H91m0,1167H0V993.71H91m0-80.5H60v-130H91m0-275.5H60V374.21H91m2007.5,898h89v-17.5m-89,17.5v-17.5m0,0h89m-89,0v-20.5m89,20.5v-20.5m-89,0h89m-89,0v-21.5m89,21.5v-21.5m-89,0h89m-89,0v-22.5m89,22.5v-22.5m-89,0h89m-89,0v-20.5m89,20.5v-20.5m-89,0h89m-89,0v-24m89,24v-24m-89,0V906.21h89v239.5m-89,0h89" fill="none" stroke="#212222" stroke-width="3"/><path d="M851.5,292.47v-281h235v281Z" fill="#3bd165" fill-opacity="0.8" opacity="0.2" style="isolation:isolate"/><path d="M1265.5,612.47,1304,529l-64.5-118a63,63,0,0,0-63,63v138.5Z" fill="#fb088c" opacity="0.2" style="isolation:isolate"/><path d="M1266,784V612h-89V784Z" fill="#fb088c" stroke="#212222" opacity="0.2" style="isolation:isolate"/><path d="M90.39,292.47h403.5v-281H90.39Z" fill="#fb088c" opacity="0.2" style="isolation:isolate"/><path d="M2096.75,1278h-285.5V638h285.5v40h89V905.47h-89Z" fill="#fb088c" opacity="0.2" style="isolation:isolate"/><path d="M1811.69,1278.21h-409.5v-151.5h51V993.21h358.5Z" fill="#60ccfa" opacity="0.2" style="isolation:isolate"/><path d="M80.28,1289v-78h20v58h892V984h249.5v43.37h-20V1004h-209.5v113.47h209.5v-50h20v50h100v20h-32.5V1269h83.5V1137.47H1376.9v-20h66.88V1004h-131.5V984H1633v20H1463.78v133.5h-51V1269h389.5V1004h-79.62V984h79.62V816.47h20V1269h265.5V1058h20v231h-818.5V1137.47h-277V1289Zm0-274.5v-112h20v112Zm0-216.5V494h20V798Zm0-409V251h20v30h90.87v20H100.28v88Zm0-282.5V0h1017V281h205V0h442V85h307.88l53.5,223h91.12V562h-89V669h89V916.47h-89v49.9h-20V879h20v17.47h69V689h-69v19.5h-20V649h-265.5v78.78h-20V629h285.5V497h20v45h69V328h-69v46.47h-20V319.15L2036.4,105H1724.28V20h-158.5V301H1434V281h111.75V20h-223.5V301h-245V20H860.78V291h-20V20H664.28v151.5h-20v-11H614.15v-20h30.13V20H503.78v120.5H574v20H503.78V281h140.5V233h20v68H292V281H483.78V20H100.28v86.5Z" fill="#fff" stroke="#212222" stroke-width="3" fill-rule="evenodd"/><path d="M1168.61,794.84v-96h20v76h69v-152h-69v33h-20V543.59h20v59.25h72.6l33.71-73.12-59.07-108.07a53,53,0,0,0-47.24,52.69V509h-20V474.34a73,73,0,0,1,73-73h5.89l64.5,118h176.72l38.35,91.49V745.34h-20V614.85l-31.57-75.51h-163L1277.6,615V867.84h114.75v20H1257.61v-93Zm286.13,93v-20h52.37V811.59h20v76.25Z" fill="#fff" stroke="#212222" stroke-width="3" fill-rule="evenodd"/><path d="M1242.12,401.1h312.8c45.95,0,81.7,38.74,81.7,84.67v318.7a83.19,83.19,0,0,1-83.2,83.17h-97.63M1168.62,701.47v103a83.19,83.19,0,0,0,83.2,83.17h139.1" fill="none" stroke="#212222" stroke-width="3"/><path d="M852.13,817.47h104a91.52,91.52,0,0,0,91.5-91.5V563a91.52,91.52,0,0,0-91.5-91.5h-104v-17h104A108.5,108.5,0,0,1,1064.63,563V726a108.5,108.5,0,0,1-108.5,108.5h-104Z" fill="#fff" stroke="#212222" stroke-width="3"/><path d="M428,836V453H751V836Zm20-20H731V473H448Z" fill="#fff" stroke="#212222" stroke-width="3" fill-rule="evenodd"/></svg>