<svg id="layer_1" data-name="Layer 1"
    xmlns="http://www.w3.org/2000/svg" viewBox="0 0 1292 2199.79">
    <title>plano</title>
    <path className="" d="M11.76,2100h6.5m145-1095.5h133.5m703-912v-91h228.5v91m-1167,0v-91h235.5v91m80.5,0v-31h130v31m275.5,0v-31h133.5v31M18.26,2100v89h17.5m-17.5-89h17.5m0,0v89m0-89h20.5m-20.5,89h20.5m0-89v89m0-89h21.5m-21.5,89h21.5m0-89v89m0-89h22.5m-22.5,89h22.5m0-89v89m0-89h20.5m-20.5,89h20.5m0-89v89m0-89h24m-24,89h24m0-89h239.5v89H144.76m0-89v89" transform="translate(0.03 0.01)" fill="none" stroke="#212222" strokeWidth="3" />
    <path className="blue_small" d="M998,853h281v235H998Z" transform="translate(0.03 0.01)" fill="#3bd165" fillOpacity="0.8" opacity="0.2" style={{ isolation: "isolate" }} onClick={()=>{props.changeModalState(); props.setIdSala('4')}}/>
<path className="pink_small2" d="M678,1267l83.5,38.5,118-64.5a63,63,0,0,0-63-63H678Z" transform="translate(0.03 0.01)" fill="#fb088c" opacity="0.2" style={{ isolation: "isolate" }} onClick={()=>{props.changeModalState(); props.setIdSala('3')}} />
<path className="pink_small" d="M506.5,1267.5h172v-89h-172Z" transform="translate(0.03 0.01)" fill="#fb088c" stroke="#212222" opacity="0.2" style={{ isolation: "isolate" }} onClick={()=>{props.changeModalState(); props.setIdSala('2')}} />
<path className="pink_medium" d="M998,91.89v403.5h281V91.89H998Z" transform="translate(0.03 0.01)" fill="#fb088c" opacity="0.2" style={{ isolation: "isolate" }} onClick={()=>{props.changeModalState(); props.setIdSala('5')}}/>
<path className="pink_large" d="M12.48,2098.25v-285.5h640v285.5h-40v89H385v-89H12.48Z" transform="translate(0.03 0.01)" fill="#fb088c" opacity="0.2" style={{ isolation: "isolate" }} onClick={()=>{props.changeModalState(); props.setIdSala('0')}}/>
<path className="blue_medium" d="M12.26,1813.19v-409.5h151.5v51h133.5v358.5Z" transform="translate(0.03 0.01)" fill="#60ccfa" opacity="0.2" style={{ isolation: "isolate" }} onClick={()=>{props.changeModalState(); props.setIdSala('1')}}/>
<path className="" d="M1.47,81.78h78v20h-58v892h285v249.5H263.1v-20h23.37v-209.5H173v209.5h50v20H173v100H153v-32.5H21.47v83.5H153V1378.4h20v66.88h113.5v-131.5h20v320.75h-20V1465.28H153v-51H21.47v389.5h265v-79.62h20v79.62H474v20H21.47v265.5h211v20H1.47v-818.5H153v-277H1.47Zm274.5,0H388v20H276Zm216.5,0h304v20h-304Zm409,0h138v20h-30v90.87h-20V101.78h-88Zm282.5,0h106.5v1017h-281v205h281v442h-85v307.88l-223,53.5v91.12h-254v-89h-107v89H374v-89H324.1v-20h87.37v20H394v69h207.5v-69H582v-20h59.5v-265.5H562.72v-20h98.75v285.5h132v20h-45v69h214v-69H916v-20h55.32l214.18-51.38V1725.78h85v-158.5h-281V1435.53h20v111.75h261v-223.5h-281v-245h281V862.28h-271v-20h271V665.78H1119v-20h11V615.65h20v30.13h120.5V505.28H1150v70.25h-20V505.28h-120.5v140.5h48v20h-68V293.53h20V485.28h261V101.78H1184Z" transform="translate(0.03 0.01)" fill="#fff" stroke="#212222" strokeWidth="3" fillRule="evenodd" />
    <path className="" d="M495.63,1170.11h96v20h-76v69h152v-69h-33v-20H746.88v20H687.63v72.6l73.12,33.71,108.07-59.07a53,53,0,0,0-52.69-47.24H781.51v-20h34.62a73,73,0,0,1,73,73V1249l-118,64.5v176.72l-91.49,38.35H545.13v-20H675.62L751.13,1477V1314l-75.69-34.9H422.63v114.75h-20V1259.11h93Zm-93,286.13h20v52.37h56.25v20H402.63Z" transform="translate(0.03 0.01)" fill="#fff" stroke="#212222" strokeWidth="3" fillRule="evenodd" />
    <path className="" d="M889.37,1243.62v312.8c0,45.95-38.74,81.7-84.67,81.7H486a83.19,83.19,0,0,1-83.17-83.2v-97.63M589,1170.12H486a83.19,83.19,0,0,0-83.17,83.2v139.1" transform="translate(0.03 0.01)" fill="none" stroke="#212222" strokeWidth="3" />
    <path className="" d="M473,853.63v104a91.51,91.51,0,0,0,91.5,91.5h163a91.51,91.51,0,0,0,91.5-91.5v-104h17v104a108.5,108.5,0,0,1-108.5,108.5h-163A108.5,108.5,0,0,1,456,957.63v-104Z" transform="translate(0.03 0.01)" fill="#fff" stroke="#212222" strokeWidth="3" />
    <path className="" d="M454.5,429.5h383v323h-383Zm20,20v283h343v-283Z" transform="translate(0.03 0.01)" fill="#fff" stroke="#212222" strokeWidth="3" fillRule="evenodd" />
</svg>

